<svg data-v-423bf9ae="" xmlns="http://www.w3.org/2000/svg" viewBox="0 0 351 90" class="iconLeftSlogan"><!----><!----><!----><g data-v-423bf9ae="" id="c8e6163a-6f76-4d4c-b8b8-1b9557109254" fill="black" transform="matrix(4.633204360242903,0,0,4.633204360242903,120.92357604787213,-13.38995950566531)"><path d="M3.05 12.74L3.05 12.74Q2.35 12.74 1.76 12.49L1.76 12.49L1.76 12.49Q1.17 12.23 0.76 11.80L0.76 11.80L0.76 11.80Q0.36 11.36 0.18 10.83L0.18 10.83L1.51 10.24L1.51 10.24Q1.69 10.72 2.02 11.04L2.02 11.04L2.02 11.04Q2.36 11.36 2.97 11.36L2.97 11.36L2.97 11.36Q3.33 11.36 3.58 11.24L3.58 11.24L3.58 11.24Q3.83 11.12 3.95 10.93L3.95 10.93L3.95 10.93Q4.07 10.74 4.07 10.55L4.07 10.55L4.07 10.55Q4.07 10.33 3.91 10.19L3.91 10.19L3.91 10.19Q3.75 10.04 3.51 9.96L3.51 9.96L3.51 9.96Q3.27 9.87 2.82 9.75L2.82 9.75L2.82 9.75Q2.15 9.58 1.71 9.39L1.71 9.39L1.71 9.39Q1.28 9.21 0.96 8.81L0.96 8.81L0.96 8.81Q0.64 8.42 0.64 7.76L0.64 7.76L0.64 7.76Q0.64 7.07 0.99 6.59L0.99 6.59L0.99 6.59Q1.34 6.11 1.92 5.87L1.92 5.87L1.92 5.87Q2.50 5.63 3.18 5.63L3.18 5.63L3.18 5.63Q4.05 5.63 4.71 6.02L4.71 6.02L4.71 6.02Q5.37 6.41 5.77 7.12L5.77 7.12L4.48 7.82L4.48 7.82Q4.27 7.44 3.95 7.19L3.95 7.19L3.95 7.19Q3.63 6.95 3.12 6.95L3.12 6.95L3.12 6.95Q2.73 6.95 2.48 7.12L2.48 7.12L2.48 7.12Q2.24 7.29 2.24 7.54L2.24 7.54L2.24 7.54Q2.24 7.73 2.39 7.86L2.39 7.86L2.39 7.86Q2.54 7.99 2.77 8.07L2.77 8.07L2.77 8.07Q3.00 8.16 3.42 8.28L3.42 8.28L3.42 8.28Q4.12 8.48 4.58 8.69L4.58 8.69L4.58 8.69Q5.04 8.89 5.38 9.32L5.38 9.32L5.38 9.32Q5.71 9.75 5.71 10.47L5.71 10.47L5.71 10.47Q5.71 11.22 5.33 11.73L5.33 11.73L5.33 11.73Q4.95 12.24 4.34 12.49L4.34 12.49L4.34 12.49Q3.73 12.74 3.05 12.74L3.05 12.74ZM9.63 12.74L9.63 12.74Q8.96 12.74 8.48 12.50L8.48 12.50L8.48 12.50Q8.00 12.25 7.74 11.80L7.74 11.80L7.74 11.80Q7.49 11.34 7.49 10.72L7.49 10.72L7.49 7.17L6.38 7.17L6.38 5.78L7.51 5.78L7.51 4.08L9.14 2.89L9.14 5.78L10.86 5.78L10.86 7.17L9.14 7.17L9.14 10.42L9.14 10.42Q9.14 10.89 9.34 11.08L9.34 11.08L9.34 11.08Q9.55 11.27 9.91 11.27L9.91 11.27L9.91 11.27Q10.15 11.27 10.40 11.20L10.40 11.20L10.40 11.20Q10.66 11.13 10.86 11.03L10.86 11.03L10.86 12.54L10.86 12.54Q10.65 12.62 10.31 12.68L10.31 12.68L10.31 12.68Q9.96 12.74 9.63 12.74L9.63 12.74ZM14.23 12.74L14.23 12.74Q13.52 12.74 12.96 12.48L12.96 12.48L12.96 12.48Q12.39 12.22 12.07 11.71L12.07 11.71L12.07 11.71Q11.74 11.20 11.74 10.51L11.74 10.51L11.74 10.51Q11.74 9.46 12.48 9.00L12.48 9.00L12.48 9.00Q13.21 8.53 14.46 8.53L14.46 8.53L16.24 8.53L16.24 8.53Q16.24 7.87 15.89 7.48L15.89 7.48L15.89 7.48Q15.54 7.09 14.90 7.09L14.90 7.09L14.90 7.09Q14.35 7.09 13.94 7.36L13.94 7.36L13.94 7.36Q13.54 7.63 13.29 8.05L13.29 8.05L12.01 7.13L12.01 7.13Q12.54 6.41 13.23 6.02L13.23 6.02L13.23 6.02Q13.92 5.63 14.88 5.63L14.88 5.63L14.88 5.63Q15.80 5.63 16.46 5.99L16.46 5.99L16.46 5.99Q17.13 6.34 17.48 6.99L17.48 6.99L17.48 6.99Q17.83 7.63 17.83 8.46L17.83 8.46L17.83 12.61L16.46 12.61L16.35 11.63L16.35 11.63Q15.93 12.24 15.41 12.49L15.41 12.49L15.41 12.49Q14.88 12.74 14.23 12.74L14.23 12.74ZM14.46 11.33L14.46 11.33Q14.93 11.33 15.33 11.11L15.33 11.11L15.33 11.11Q15.74 10.89 15.98 10.52L15.98 10.52L15.98 10.52Q16.23 10.16 16.24 9.73L16.24 9.73L14.56 9.73L14.56 9.73Q14.02 9.73 13.74 9.97L13.74 9.97L13.74 9.97Q13.45 10.21 13.45 10.56L13.45 10.56L13.45 10.56Q13.45 10.91 13.72 11.12L13.72 11.12L13.72 11.12Q13.99 11.33 14.46 11.33L14.46 11.33ZM19.61 12.61L19.61 5.78L21.24 5.78L21.24 6.92L21.24 6.92Q21.45 6.32 21.96 5.98L21.96 5.98L21.96 5.98Q22.48 5.63 23.07 5.63L23.07 5.63L23.07 5.63Q23.42 5.63 23.75 5.76L23.75 5.76L23.75 5.76Q24.08 5.88 24.32 6.13L24.32 6.13L23.56 7.49L23.56 7.49Q23.21 7.26 22.82 7.26L22.82 7.26L22.82 7.26Q22.41 7.26 22.04 7.52L22.04 7.52L22.04 7.52Q21.68 7.79 21.45 8.34L21.45 8.34L21.45 8.34Q21.23 8.89 21.23 9.72L21.23 9.72L21.23 12.61L19.61 12.61ZM28.31 11.54L28.31 11.54Q29.11 11.65 29.67 11.82L29.67 11.82L29.67 11.82Q30.23 12.00 30.60 12.41L30.60 12.41L30.60 12.41Q30.97 12.82 30.97 13.56L30.97 13.56L30.97 13.56Q30.97 14.30 30.57 14.82L30.57 14.82L30.57 14.82Q30.18 15.33 29.50 15.59L29.50 15.59L29.50 15.59Q28.81 15.84 27.95 15.84L27.95 15.84L27.95 15.84Q26.96 15.84 26.24 15.53L26.24 15.53L26.24 15.53Q25.52 15.22 25.14 14.66L25.14 14.66L25.14 14.66Q24.75 14.11 24.75 13.41L24.75 13.41L24.75 13.41Q24.75 13.25 24.78 13.11L24.78 13.11L25.49 12.47L25.49 12.47Q24.82 12.02 24.82 11.12L24.82 11.12L24.82 11.12Q24.82 10.68 24.98 10.33L24.98 10.33L24.98 10.33Q25.14 9.99 25.46 9.71L25.46 9.71L25.46 9.71Q25.18 9.39 25.04 8.99L25.04 8.99L25.04 8.99Q24.89 8.59 24.89 8.14L24.89 8.14L24.89 8.14Q24.89 7.42 25.27 6.85L25.27 6.85L25.27 6.85Q25.66 6.28 26.30 5.95L26.30 5.95L26.30 5.95Q26.94 5.63 27.69 5.63L27.69 5.63L27.69 5.63Q28.14 5.63 28.55 5.75L28.55 5.75L28.55 5.75Q28.96 5.86 29.31 6.07L29.31 6.07L30.35 5.17L31.22 6.23L30.23 7.03L30.23 7.03Q30.52 7.56 30.52 8.22L30.52 8.22L30.52 8.22Q30.52 8.96 30.15 9.53L30.15 9.53L30.15 9.53Q29.77 10.10 29.13 10.41L29.13 10.41L29.13 10.41Q28.50 10.72 27.75 10.72L27.75 10.72L27.75 10.72Q27.06 10.72 26.45 10.45L26.45 10.45L26.45 10.45Q26.25 10.58 26.25 10.81L26.25 10.81L26.25 10.81Q26.25 11.05 26.44 11.17L26.44 11.17L26.44 11.17Q26.63 11.30 26.94 11.36L26.94 11.36L26.94 11.36Q27.25 11.42 27.86 11.48L27.86 11.48L27.86 11.48Q27.99 11.50 28.10 11.52L28.10 11.52L28.10 11.52Q28.21 11.53 28.31 11.54L28.31 11.54ZM27.75 6.92L27.75 6.92Q27.21 6.92 26.91 7.26L26.91 7.26L26.91 7.26Q26.61 7.60 26.61 8.16L26.61 8.16L26.61 8.16Q26.61 8.70 26.91 9.03L26.91 9.03L26.91 9.03Q27.21 9.36 27.75 9.36L27.75 9.36L27.75 9.36Q28.29 9.36 28.58 9.03L28.58 9.03L28.58 9.03Q28.87 8.70 28.87 8.16L28.87 8.16L28.87 8.16Q28.87 7.60 28.57 7.26L28.57 7.26L28.57 7.26Q28.28 6.92 27.75 6.92L27.75 6.92ZM27.96 14.53L27.96 14.53Q28.62 14.53 29.00 14.32L29.00 14.32L29.00 14.32Q29.39 14.12 29.39 13.75L29.39 13.75L29.39 13.75Q29.39 13.51 29.21 13.38L29.21 13.38L29.21 13.38Q29.03 13.25 28.70 13.19L28.70 13.19L28.70 13.19Q28.38 13.13 27.72 13.06L27.72 13.06L27.72 13.06Q27.58 13.04 27.51 13.03L27.51 13.03L27.51 13.03Q26.87 12.96 26.50 12.87L26.50 12.87L26.15 13.45L26.15 13.45Q26.22 13.97 26.71 14.25L26.71 14.25L26.71 14.25Q27.20 14.53 27.96 14.53L27.96 14.53ZM32.74 15.54L34.00 12.42L31.32 5.78L33.15 5.78L34.88 10.52L36.63 5.78L38.46 5.78L34.56 15.54L32.74 15.54ZM39.41 12.61L39.41 5.78L41.09 5.78L41.09 6.49L41.09 6.49Q41.41 6.05 41.86 5.84L41.86 5.84L41.86 5.84Q42.31 5.63 42.83 5.63L42.83 5.63L42.83 5.63Q44.08 5.63 44.75 6.84L44.75 6.84L44.75 6.84Q45.13 6.23 45.73 5.93L45.73 5.93L45.73 5.93Q46.32 5.63 47.01 5.63L47.01 5.63L47.01 5.63Q47.84 5.63 48.41 6.04L48.41 6.04L48.41 6.04Q48.98 6.44 49.26 7.09L49.26 7.09L49.26 7.09Q49.53 7.75 49.53 8.50L49.53 8.50L49.53 12.61L47.84 12.61L47.84 8.72L47.84 8.72Q47.84 8.01 47.59 7.60L47.59 7.60L47.59 7.60Q47.34 7.18 46.74 7.18L46.74 7.18L46.74 7.18Q46.30 7.18 45.98 7.41L45.98 7.41L45.98 7.41Q45.65 7.63 45.48 8.01L45.48 8.01L45.48 8.01Q45.31 8.39 45.31 8.85L45.31 8.85L45.31 12.61L43.61 12.61L43.61 8.69L43.61 8.69Q43.61 7.99 43.37 7.59L43.37 7.59L43.37 7.59Q43.13 7.18 42.53 7.18L42.53 7.18L42.53 7.18Q42.09 7.18 41.76 7.41L41.76 7.41L41.76 7.41Q41.44 7.63 41.27 8.01L41.27 8.01L41.27 8.01Q41.09 8.39 41.09 8.85L41.09 8.85L41.09 12.61L39.41 12.61Z"></path></g><!----><g data-v-423bf9ae="" id="4d39c82e-d62e-418c-8409-a6eb3f452563" transform="matrix(1.1184845662805984,0,0,1.1184845662805984,-4.386156132952088,-13.464222980946133)" stroke="none" fill="black"><path d="M92.802 29.023a4.278 4.278 0 1 0-3.642 7.745 4.279 4.279 0 1 0 3.642-7.745zM82.585 80.495a3.076 3.076 0 0 0-3.795 2.132 3.075 3.075 0 0 0 2.131 3.795 3.081 3.081 0 0 0 3.797-2.134 3.08 3.08 0 0 0-2.133-3.793zM61.674 60.653l7.567 6.597 7.02-.604-7.989-7.311 10.948-5.017-10.402-4.133-7.654 3.208L86.388 37.97a6.813 6.813 0 0 1-1.859-2.804L60.848 52.915l11.095-10.879-7.724-.262 2.211-8.345-5.161 2.278-3.691 14.645 5.271-28.916a5.793 5.793 0 0 1-3.051-.536l-2.785 29.352-.634-15.722-2.276-4.063-3.418 6.923-8.743-3.328 2.64 8.22 5.62 7.377 4.277 3.821-28.323-18.787a12.982 12.982 0 0 1-4.261 8.392L53.78 54.847l-16.891-2.304-6.641 3.044 11.194 4.445-7.594 7.712 5.452.187 15.651-10.507-26.97 24.9a7.294 7.294 0 0 1 2.559 2.211L55.358 57.82 44.113 76.003l7.485-3.299 3.77 6.736 3.421-6.922 8.736 3.324-2.004-6.255-4.378-8.494 15.741 19.553a5.653 5.653 0 0 1 2.268-2.187L61.674 60.653zM63.526 18.661a3.27 3.27 0 1 0-2.45-6.065 3.274 3.274 0 0 0-1.809 4.254 3.272 3.272 0 0 0 4.259 1.811zM25.585 85.03a3.97 3.97 0 1 0-2.059 7.668 3.97 3.97 0 0 0 2.059-7.668zM21.959 32.996c-.184-4.88-4.303-8.681-9.174-8.493a8.848 8.848 0 0 0-8.496 9.187c.193 4.865 4.299 8.674 9.182 8.484 4.88-.189 8.686-4.303 8.488-9.178z"></path><path d="M63.251 28.813l-.832 2.234a.549.549 0 0 0 .735.693l7.578-3.342-2.367 8.931a1.4 1.4 0 0 0 1.307 1.76l5.605.19h.019a.552.552 0 0 0 .385-.158l1.677-1.654a.547.547 0 0 0-.365-.937l-5.466-.185 2.66-10.048a1.41 1.41 0 0 0-.445-1.426c-.405-.344-1-.429-1.475-.215l-8.724 3.848a.547.547 0 0 0-.292.309zM36.266 34.946a.556.556 0 0 0 .114.199l2.789 3.093a.544.544 0 0 0 .679.108.548.548 0 0 0 .249-.642l-2.712-8.444 10.69 4.069c.16.061.327.09.496.09.538 0 1.021-.299 1.258-.78l4.112-8.327 1.917 3.421c.1.178.29.293.484.28a.547.547 0 0 0 .54-.64l-.02-3.441a.55.55 0 0 0-.07-.265l-1.707-3.047a1.388 1.388 0 0 0-1.211-.718h-.049a1.4 1.4 0 0 0-1.221.781l-4.725 9.571-12.223-4.651a1.419 1.419 0 0 0-1.466.293 1.413 1.413 0 0 0-.369 1.445l2.445 7.605zM70.085 80.085a.545.545 0 0 0-.316-.318l-8.372-3.188a1.376 1.376 0 0 0-.496-.092c-.53 0-1.024.308-1.259.782l-4.114 8.327-4.537-8.104a1.406 1.406 0 0 0-1.788-.599l-8.139 3.589a.548.548 0 0 0-.255.23l-1.416 2.49a.548.548 0 1 0 .697.772l9.079-4.002 5.212 9.316c.249.443.718.717 1.224.717h.038a1.405 1.405 0 0 0 1.22-.78l4.729-9.573 8.597 3.272a.548.548 0 0 0 .707-.705l-.811-2.134zM22.98 70.698a1.404 1.404 0 0 0 .951 2.385l8.295.281a.554.554 0 0 0 .331-.097l2.351-1.627a.548.548 0 1 0-.292-.998l-7.398-.253 7.661-7.782c.332-.336.471-.812.373-1.272a1.406 1.406 0 0 0-.854-1.014L22.95 55.775l7.499-3.437a.548.548 0 0 0-.17-1.042l-3.336-.351a.548.548 0 0 0-.285.047L18.8 54.593a1.402 1.402 0 0 0 .067 2.577L31.4 62.147l-8.42 8.551zM90.602 52.737l-12.898-5.124a.545.545 0 0 0-.329-.024l-2.62.624a.547.547 0 0 0-.333.832c.162.249.388.436.651.54l11.445 4.547-11.194 5.129a1.405 1.405 0 0 0-.363 2.309l8.059 7.376-9.105.783a.548.548 0 0 0-.249 1.007l2.359 1.511a.544.544 0 0 0 .344.084l10.073-.865a1.403 1.403 0 0 0 .827-2.431l-8.854-8.104 12.255-5.614c.511-.234.831-.748.816-1.312a1.4 1.4 0 0 0-.884-1.268z"></path></g><!----><g data-v-423bf9ae="" id="0bf69c30-c931-42a8-9ac6-4650377e972e" fill="black" transform="matrix(0.7752114650023563,0,0,0.7752114650023563,120.71877193185028,57.17822839204856)"><path d="M8.47 3.78L8.47 9.65L8.47 9.65Q8.47 11.35 7.55 12.26L7.55 12.26L7.55 12.26Q6.62 13.16 4.91 13.16L4.91 13.16L4.91 13.16Q3.21 13.16 2.27 12.26L2.27 12.26L2.27 12.26Q1.34 11.35 1.34 9.65L1.34 9.65L1.34 3.78L2.04 3.78L2.04 9.51L2.04 9.51Q2.04 10.99 2.77 11.75L2.77 11.75L2.77 11.75Q3.50 12.52 4.91 12.52L4.91 12.52L4.91 12.52Q6.31 12.52 7.04 11.75L7.04 11.75L7.04 11.75Q7.77 10.99 7.77 9.51L7.77 9.51L7.77 3.78L8.47 3.78ZM21.34 3.78L21.34 3.78Q22.78 3.78 23.63 4.50L23.63 4.50L23.63 4.50Q24.47 5.22 24.47 6.48L24.47 6.48L24.47 6.48Q24.47 7.74 23.63 8.47L23.63 8.47L23.63 8.47Q22.78 9.20 21.34 9.20L21.34 9.20L18.97 9.20L18.97 13.02L18.27 13.02L18.27 3.78L21.34 3.78ZM21.25 8.54L21.25 8.54Q22.46 8.54 23.09 8.01L23.09 8.01L23.09 8.01Q23.73 7.48 23.73 6.48L23.73 6.48L23.73 6.48Q23.73 5.50 23.09 4.96L23.09 4.96L23.09 4.96Q22.46 4.42 21.25 4.42L21.25 4.42L18.97 4.42L18.97 8.54L21.25 8.54ZM36.40 3.78L36.40 3.78Q38.61 3.78 39.81 4.95L39.81 4.95L39.81 4.95Q41.01 6.12 41.01 8.33L41.01 8.33L41.01 8.33Q41.01 10.60 39.81 11.81L39.81 11.81L39.81 11.81Q38.61 13.02 36.40 13.02L36.40 13.02L33.49 13.02L33.49 3.78L36.40 3.78ZM36.46 12.38L36.46 12.38Q38.30 12.38 39.29 11.33L39.29 11.33L39.29 11.33Q40.28 10.29 40.28 8.33L40.28 8.33L40.28 8.33Q40.28 6.45 39.29 5.44L39.29 5.44L39.29 5.44Q38.30 4.42 36.46 4.42L36.46 4.42L34.19 4.42L34.19 12.38L36.46 12.38ZM56.39 13.02L55.23 10.12L50.81 10.12L49.66 13.02L48.92 13.02L52.61 3.78L53.44 3.78L57.13 13.02L56.39 13.02ZM51.07 9.48L54.98 9.48L53.37 5.45L53.03 4.47L53.02 4.47L52.68 5.42L51.07 9.48ZM70.83 3.78L70.83 4.42L67.45 4.42L67.45 13.02L66.75 13.02L66.75 4.42L63.38 4.42L63.38 3.78L70.83 3.78ZM80.29 12.38L86.13 12.38L86.13 13.02L79.59 13.02L79.59 3.78L85.90 3.78L85.90 4.42L80.29 4.42L80.29 7.99L84.73 7.99L84.73 8.65L80.29 8.65L80.29 12.38ZM112 3.78L108.72 9.42L108.72 13.02L108.02 13.02L108.02 9.42L104.75 3.78L105.57 3.78L108.37 8.69L111.17 3.78L112 3.78ZM123.97 3.64L123.97 3.64Q125.27 3.64 126.23 4.22L126.23 4.22L126.23 4.22Q127.19 4.80 127.71 5.87L127.71 5.87L127.71 5.87Q128.23 6.94 128.23 8.40L128.23 8.40L128.23 8.40Q128.23 9.86 127.71 10.93L127.71 10.93L127.71 10.93Q127.19 12.00 126.23 12.58L126.23 12.58L126.23 12.58Q125.27 13.16 123.97 13.16L123.97 13.16L123.97 13.16Q122.67 13.16 121.71 12.58L121.71 12.58L121.71 12.58Q120.75 12.00 120.23 10.93L120.23 10.93L120.23 10.93Q119.71 9.86 119.71 8.40L119.71 8.40L119.71 8.40Q119.71 6.94 120.23 5.87L120.23 5.87L120.23 5.87Q120.75 4.80 121.71 4.22L121.71 4.22L121.71 4.22Q122.67 3.64 123.97 3.64L123.97 3.64ZM123.97 4.28L123.97 4.28Q122.89 4.28 122.10 4.78L122.10 4.78L122.10 4.78Q121.31 5.28 120.88 6.21L120.88 6.21L120.88 6.21Q120.46 7.14 120.46 8.40L120.46 8.40L120.46 8.40Q120.46 9.66 120.88 10.59L120.88 10.59L120.88 10.59Q121.31 11.52 122.10 12.02L122.10 12.02L122.10 12.02Q122.89 12.52 123.97 12.52L123.97 12.52L123.97 12.52Q125.05 12.52 125.85 12.02L125.85 12.02L125.85 12.02Q126.64 11.52 127.07 10.59L127.07 10.59L127.07 10.59Q127.50 9.66 127.50 8.40L127.50 8.40L127.50 8.40Q127.50 7.14 127.07 6.21L127.07 6.21L127.07 6.21Q126.64 5.28 125.85 4.78L125.85 4.78L125.85 4.78Q125.05 4.28 123.97 4.28L123.97 4.28ZM144.56 3.78L144.56 9.65L144.56 9.65Q144.56 11.35 143.64 12.26L143.64 12.26L143.64 12.26Q142.72 13.16 141.01 13.16L141.01 13.16L141.01 13.16Q139.30 13.16 138.37 12.26L138.37 12.26L138.37 12.26Q137.44 11.35 137.44 9.65L137.44 9.65L137.44 3.78L138.14 3.78L138.14 9.51L138.14 9.51Q138.14 10.99 138.87 11.75L138.87 11.75L138.87 11.75Q139.59 12.52 141.01 12.52L141.01 12.52L141.01 12.52Q142.41 12.52 143.14 11.75L143.14 11.75L143.14 11.75Q143.86 10.99 143.86 9.51L143.86 9.51L143.86 3.78L144.56 3.78ZM161.31 13.02L160.48 13.02L157.84 9.02L157.79 9.02L155.06 9.02L155.06 13.02L154.36 13.02L154.36 3.78L157.79 3.78L157.79 3.78Q159.18 3.78 160.00 4.48L160.00 4.48L160.00 4.48Q160.82 5.18 160.82 6.40L160.82 6.40L160.82 6.40Q160.82 7.41 160.23 8.07L160.23 8.07L160.23 8.07Q159.64 8.74 158.62 8.93L158.62 8.93L161.31 13.02ZM155.06 4.42L155.06 8.36L157.78 8.36L157.78 8.36Q158.90 8.36 159.49 7.85L159.49 7.85L159.49 7.85Q160.09 7.35 160.09 6.40L160.09 6.40L160.09 6.40Q160.09 5.45 159.49 4.93L159.49 4.93L159.49 4.93Q158.90 4.42 157.78 4.42L157.78 4.42L155.06 4.42ZM181.71 13.02L181.71 3.78L184.97 3.78L184.97 3.78Q186.48 3.78 187.23 4.41L187.23 4.41L187.23 4.41Q187.98 5.04 187.98 6.23L187.98 6.23L187.98 6.23Q187.98 7.04 187.54 7.60L187.54 7.60L187.54 7.60Q187.10 8.16 186.28 8.33L186.28 8.33L186.28 8.34L186.28 8.34Q187.18 8.48 187.71 9.07L187.71 9.07L187.71 9.07Q188.23 9.66 188.23 10.53L188.23 10.53L188.23 10.53Q188.23 11.72 187.38 12.37L187.38 12.37L187.38 12.37Q186.54 13.02 184.97 13.02L184.97 13.02L181.71 13.02ZM182.41 8.04L184.98 8.04L184.98 8.04Q187.24 8.04 187.24 6.23L187.24 6.23L187.24 6.23Q187.24 4.42 184.98 4.42L184.98 4.42L182.41 4.42L182.41 8.04ZM182.41 12.38L185.11 12.38L185.11 12.38Q186.28 12.38 186.89 11.90L186.89 11.90L186.89 11.90Q187.49 11.42 187.49 10.53L187.49 10.53L187.49 10.53Q187.49 9.62 186.89 9.15L186.89 9.15L186.89 9.15Q186.28 8.68 185.11 8.68L185.11 8.68L182.41 8.68L182.41 12.38ZM201.22 3.64L201.22 3.64Q202.52 3.64 203.48 4.22L203.48 4.22L203.48 4.22Q204.44 4.80 204.96 5.87L204.96 5.87L204.96 5.87Q205.48 6.94 205.48 8.40L205.48 8.40L205.48 8.40Q205.48 9.86 204.96 10.93L204.96 10.93L204.96 10.93Q204.44 12.00 203.48 12.58L203.48 12.58L203.48 12.58Q202.52 13.16 201.22 13.16L201.22 13.16L201.22 13.16Q199.92 13.16 198.96 12.58L198.96 12.58L198.96 12.58Q198.00 12.00 197.48 10.93L197.48 10.93L197.48 10.93Q196.97 9.86 196.97 8.40L196.97 8.40L196.97 8.40Q196.97 6.94 197.48 5.87L197.48 5.87L197.48 5.87Q198.00 4.80 198.96 4.22L198.96 4.22L198.96 4.22Q199.92 3.64 201.22 3.64L201.22 3.64ZM201.22 4.28L201.22 4.28Q200.14 4.28 199.35 4.78L199.35 4.78L199.35 4.78Q198.56 5.28 198.14 6.21L198.14 6.21L198.14 6.21Q197.71 7.14 197.71 8.40L197.71 8.40L197.71 8.40Q197.71 9.66 198.14 10.59L198.14 10.59L198.14 10.59Q198.56 11.52 199.35 12.02L199.35 12.02L199.35 12.02Q200.14 12.52 201.22 12.52L201.22 12.52L201.22 12.52Q202.30 12.52 203.10 12.02L203.10 12.02L203.10 12.02Q203.90 11.52 204.32 10.59L204.32 10.59L204.32 10.59Q204.75 9.66 204.75 8.40L204.75 8.40L204.75 8.40Q204.75 7.14 204.32 6.21L204.32 6.21L204.32 6.21Q203.90 5.28 203.10 4.78L203.10 4.78L203.10 4.78Q202.30 4.28 201.22 4.28L201.22 4.28ZM217.71 3.78L217.71 3.78Q219.93 3.78 221.12 4.95L221.12 4.95L221.12 4.95Q222.32 6.12 222.32 8.33L222.32 8.33L222.32 8.33Q222.32 10.60 221.12 11.81L221.12 11.81L221.12 11.81Q219.93 13.02 217.71 13.02L217.71 13.02L214.80 13.02L214.80 3.78L217.71 3.78ZM217.77 12.38L217.77 12.38Q219.62 12.38 220.61 11.33L220.61 11.33L220.61 11.33Q221.59 10.29 221.59 8.33L221.59 8.33L221.59 8.33Q221.59 6.45 220.61 5.44L220.61 5.44L220.61 5.44Q219.62 4.42 217.77 4.42L217.77 4.42L215.50 4.42L215.50 12.38L217.77 12.38ZM237.30 3.78L234.02 9.42L234.02 13.02L233.32 13.02L233.32 9.42L230.05 3.78L230.87 3.78L233.67 8.69L236.47 3.78L237.30 3.78Z"></path></g></svg>