<svg data-v-fde0c5aa="" xmlns="http://www.w3.org/2000/svg" viewBox="0 0 300 300" class="icon"><!----><defs data-v-fde0c5aa=""><!----></defs><rect data-v-fde0c5aa="" fill="#FDEDDF" x="0" y="0" width="300px" height="300px" class="logo-background-square"></rect><!----><defs data-v-fde0c5aa=""><linearGradient data-v-fde0c5aa="" gradientTransform="rotate(25)" id="4532516c-9ece-4649-82ac-f34ce7daa9af" x1="0%" y1="0%" x2="100%" y2="0%"><stop data-v-fde0c5aa="" offset="0%" stop-color="#E63500" stop-opacity="1"></stop><stop data-v-fde0c5aa="" offset="100%" stop-color="#FFC316" stop-opacity="1"></stop></linearGradient></defs><g data-v-fde0c5aa="" id="916a9a55-00c0-41c3-a891-2b3f0b163bd8" fill="url(#4532516c-9ece-4649-82ac-f34ce7daa9af)" stroke="none" transform="matrix(2.4181654914565396,0,0,2.4181654914565396,29.64483521397142,22.826425640411518)"><path d="M92.802 29.023a4.278 4.278 0 1 0-3.642 7.745 4.279 4.279 0 1 0 3.642-7.745zM82.585 80.495a3.076 3.076 0 0 0-3.795 2.132 3.075 3.075 0 0 0 2.131 3.795 3.081 3.081 0 0 0 3.797-2.134 3.08 3.08 0 0 0-2.133-3.793zM61.674 60.653l7.567 6.597 7.02-.604-7.989-7.311 10.948-5.017-10.402-4.133-7.654 3.208L86.388 37.97a6.813 6.813 0 0 1-1.859-2.804L60.848 52.915l11.095-10.879-7.724-.262 2.211-8.345-5.161 2.278-3.691 14.645 5.271-28.916a5.793 5.793 0 0 1-3.051-.536l-2.785 29.352-.634-15.722-2.276-4.063-3.418 6.923-8.743-3.328 2.64 8.22 5.62 7.377 4.277 3.821-28.323-18.787a12.982 12.982 0 0 1-4.261 8.392L53.78 54.847l-16.891-2.304-6.641 3.044 11.194 4.445-7.594 7.712 5.452.187 15.651-10.507-26.97 24.9a7.294 7.294 0 0 1 2.559 2.211L55.358 57.82 44.113 76.003l7.485-3.299 3.77 6.736 3.421-6.922 8.736 3.324-2.004-6.255-4.378-8.494 15.741 19.553a5.653 5.653 0 0 1 2.268-2.187L61.674 60.653zM63.526 18.661a3.27 3.27 0 1 0-2.45-6.065 3.274 3.274 0 0 0-1.809 4.254 3.272 3.272 0 0 0 4.259 1.811zM25.585 85.03a3.97 3.97 0 1 0-2.059 7.668 3.97 3.97 0 0 0 2.059-7.668zM21.959 32.996c-.184-4.88-4.303-8.681-9.174-8.493a8.848 8.848 0 0 0-8.496 9.187c.193 4.865 4.299 8.674 9.182 8.484 4.88-.189 8.686-4.303 8.488-9.178z"></path><path d="M63.251 28.813l-.832 2.234a.549.549 0 0 0 .735.693l7.578-3.342-2.367 8.931a1.4 1.4 0 0 0 1.307 1.76l5.605.19h.019a.552.552 0 0 0 .385-.158l1.677-1.654a.547.547 0 0 0-.365-.937l-5.466-.185 2.66-10.048a1.41 1.41 0 0 0-.445-1.426c-.405-.344-1-.429-1.475-.215l-8.724 3.848a.547.547 0 0 0-.292.309zM36.266 34.946a.556.556 0 0 0 .114.199l2.789 3.093a.544.544 0 0 0 .679.108.548.548 0 0 0 .249-.642l-2.712-8.444 10.69 4.069c.16.061.327.09.496.09.538 0 1.021-.299 1.258-.78l4.112-8.327 1.917 3.421c.1.178.29.293.484.28a.547.547 0 0 0 .54-.64l-.02-3.441a.55.55 0 0 0-.07-.265l-1.707-3.047a1.388 1.388 0 0 0-1.211-.718h-.049a1.4 1.4 0 0 0-1.221.781l-4.725 9.571-12.223-4.651a1.419 1.419 0 0 0-1.466.293 1.413 1.413 0 0 0-.369 1.445l2.445 7.605zM70.085 80.085a.545.545 0 0 0-.316-.318l-8.372-3.188a1.376 1.376 0 0 0-.496-.092c-.53 0-1.024.308-1.259.782l-4.114 8.327-4.537-8.104a1.406 1.406 0 0 0-1.788-.599l-8.139 3.589a.548.548 0 0 0-.255.23l-1.416 2.49a.548.548 0 1 0 .697.772l9.079-4.002 5.212 9.316c.249.443.718.717 1.224.717h.038a1.405 1.405 0 0 0 1.22-.78l4.729-9.573 8.597 3.272a.548.548 0 0 0 .707-.705l-.811-2.134zM22.98 70.698a1.404 1.404 0 0 0 .951 2.385l8.295.281a.554.554 0 0 0 .331-.097l2.351-1.627a.548.548 0 1 0-.292-.998l-7.398-.253 7.661-7.782c.332-.336.471-.812.373-1.272a1.406 1.406 0 0 0-.854-1.014L22.95 55.775l7.499-3.437a.548.548 0 0 0-.17-1.042l-3.336-.351a.548.548 0 0 0-.285.047L18.8 54.593a1.402 1.402 0 0 0 .067 2.577L31.4 62.147l-8.42 8.551zM90.602 52.737l-12.898-5.124a.545.545 0 0 0-.329-.024l-2.62.624a.547.547 0 0 0-.333.832c.162.249.388.436.651.54l11.445 4.547-11.194 5.129a1.405 1.405 0 0 0-.363 2.309l8.059 7.376-9.105.783a.548.548 0 0 0-.249 1.007l2.359 1.511a.544.544 0 0 0 .344.084l10.073-.865a1.403 1.403 0 0 0 .827-2.431l-8.854-8.104 12.255-5.614c.511-.234.831-.748.816-1.312a1.4 1.4 0 0 0-.884-1.268z"></path></g><!----></svg>